<?xml version="1.0" ?><svg role="img" viewBox="0 0 28 38" xmlns="http://www.w3.org/2000/svg"><path d="m13.848 0c-7.62339 0-13.848 6.22461-13.848 13.848 0 6.4344 9.86147 19.2334 12.9388 23.08.0699.1399.1399.2099.2098.2099.2098.2098.4197.2797.6994.2797.2798 0 .5595-.1399.6994-.3497 2.9375-3.4969 13.1486-16.6456 13.1486-23.2199 0-7.62339-6.1546-13.848-13.848-13.848zm0 22.8702h-.0699v2.1681c-5.59518-.0699-10.14125-5.1055-10.14125-11.3302 0-.2098 0-.3497 0-.5595 0-5.31538 4.54607-9.65163 10.21115-9.65163 5.6651 0 10.2112 4.33625 10.2112 9.72163 0 5.3853-4.5461 9.6516-10.2112 9.6516z" fill="#003f5c"/><path d="m19.7231 12.2393-.1399.1399-2.5178 2.4479.5595 3.427v.2098c0 .2098-.2098.4196-.4196.4196-.07 0-.07 0-.1399 0l-.2098-.0699-3.0774-1.6086-3.0773 1.6086-.1399.0699s-.0699 0-.1399 0c-.2098 0-.4196-.2098-.4196-.4196v-.2098l.5595-3.427-2.5178-2.4479-.06994-.07c-.06994-.0699-.06994-.2098-.06994-.2797 0-.2098.13988-.4197.3497-.4197h.06994l3.49694-.4895 1.5387-3.21725s0 0 0-.06994c.0699-.13988.2098-.20982.4196-.20982.1399 0 .3497.06994.4197.20982v.06994l1.5386 3.21725 3.497.4895h.07c.2098.07.3497.2099.3497.4197.1398.0699.0699.1399.0699.2098z" fill="#ff6361"/></svg>