<?xml version="1.0" ?><svg role="img" viewBox="0 0 37 37" xmlns="http://www.w3.org/2000/svg"><rect fill="#ff6361" height="37" rx="18.5" width="37"/><path d="m23.7927 14.3331h-1.1437l-.0114-.0114c-.2173-.0229-.4117-.103-.5718-.2402l-1.4868-1.4868-.0115-.0114c-.3774-.3546-.8691-.5604-1.3838-.5719h-2.2988v-.0114c-.5146.0114-1.0064.2173-1.3838.5604l-1.4868 1.4753v-.0114c-.1716.1258-.366.2173-.5718.2287h-1.1437-.0115c-1.2694 0-2.2873 1.0179-2.2873 2.2874v5.7184c0 1.258 1.0179 2.2759 2.2873 2.2759h11.4368l-.0114-.0012c1.258 0 2.2873-1.0293 2.2873-2.2873v-5.7184-.0114c0-1.2695-.9138-2.1833-2.1718-2.1833.08.1155-.0355 0-.0355 0zm-8.5775 5.1465c-.0115-1.5897 1.2694-2.8706 2.8477-2.8706 1.5783-.0114 2.8592 1.2695 2.8592 2.8478 0 1.5782-1.2809 2.8591-2.8592 2.8591v-.0011c-1.5897 0-2.8706-1.2809-2.8706-2.8592-.0012-.0114-.0012-.0114-.0012-.0114z" fill="#fff"/></svg>