<?xml version="1.0" ?><svg role="img" viewBox="0 0 24 25" xmlns="http://www.w3.org/2000/svg"><path d="m12.01.01h-.01c-6.63 0-12 5.37-12 12 0 6.62 5.37 12 12 12 6.62-.01 12-5.38 12-12l-.01-.01c-.01-6.63-5.38-12-12.01-12zm6.76 13.327h-.01c-.23.3-.58.47-.95.47h-2.9v-.001c-.37 0-.71.16-.94.45h-.01c-.23.28-.3.66-.21 1.01l.52 1.96c.08.3.01.63-.2.88v-.01c-.36.43-1 .49-1.43.14-.07-.06-.14-.13-.19-.2l-2.89-4.44c-.23-.32-.59-.5-.97-.51h-1.91-.01c-.14-.01-.25-.12-.25-.26v-4.596h-.01c0-.1.05-.18.13-.23.18-.1.37-.2.56-.29 4.32-2.19 4.118-1.77 7.824-1.77 1.55 0 2.33 1 2.79 2.482l1.125 3.75c.11.35.04.74-.18 1.03z" fill="#bbd0d9"/></svg>