<?xml version="1.0" ?><svg role="img" viewBox="0 0 57 57" fill="none" xmlns="http://www.w3.org/2000/svg">
<circle cx="28.5" cy="28.5" r="28.5" fill="#FF6361"/>
<path d="M30.66 34.26H27.72L26.4 15.42H31.95L30.66 34.26ZM26.49 39.78C26.49 38.98 26.78 38.33 27.36 37.83C27.96 37.31 28.67 37.05 29.49 37.05C30.31 37.05 30.96 37.3 31.44 37.8C31.92 38.28 32.16 38.86 32.16 39.54C32.16 40.38 31.87 41.04 31.29 41.52C30.73 42 29.98 42.24 29.04 42.24C28.38 42.24 27.79 42.01 27.27 41.55C26.75 41.07 26.49 40.48 26.49 39.78Z" fill="white"/>
</svg>
