<?xml version="1.0" ?><svg role="img" viewBox="0 0 16 14" xmlns="http://www.w3.org/2000/svg"><path d="m7.13456 13.5732c.04681.0506.10357.091.16673.1186s.13134.0419.20027.0419c.06892 0 .13711-.0143.20026-.0419.06316-.0276.11992-.068.16674-.1186l5.95904-6.45997c.5982-.62893.9905-1.42523 1.1247-2.28278.1341-.85755.0038-1.73563-.3737-2.51722-.2757-.59263-.6924-1.10868-1.2136-1.50301-.5213-.394331-1.1312-.654927-1.7764-.7589893-.6312-.1033274-1.2781-.04983392-1.88379.1557673-.60564.205601-1.15142.556998-1.58925 1.023232l-.434.451c-.0234.02407-.05138.04321-.0823.05627-.03091.01307-.06414.0198-.0977.0198-.03357 0-.06679-.00673-.09771-.0198-.03092-.01306-.0589-.0322-.08229-.05627l-.434-.451c-.43814-.465699-.98405-.816531-1.58968-1.021603-.60563-.20507285-1.25238-.2580942-1.88332-.154396-.64527.104063-1.2552.364658-1.77644.758989-.52124.39433-.937913.91038-1.213564 1.50301-.3764316.77932-.506865 1.65471-.3739761 2.50992.1328891.8552.5228111 1.64974 1.1179801 2.27808z" fill="#ff6361"/></svg>