<?xml version="1.0" ?><svg role="img" viewBox="0 0 24 22" xmlns="http://www.w3.org/2000/svg">
<path d="M12.0669 0.058C5.78039 0.058 0.667662 4.288 0.667662 9.5L0.657715 9.49C0.687556 12.02 1.8414 14.4 3.791 16L1.51315 20.56H1.50321C1.3739 20.8 1.47336 21.1 1.72204 21.23C1.78172 21.26 1.8613 21.28 1.94087 21.28H1.93092C2.00055 21.27 2.07018 21.26 2.13981 21.23L8.22734 18.37C9.45082 18.72 10.724 18.9 11.9972 18.9C18.2738 18.9 23.3954 14.66 23.3954 9.45C23.3954 4.24 18.2728 0 11.9962 0L12.0669 0.058ZM7.05261 11.058L7.04266 11.057C6.21706 11.047 5.55062 10.377 5.55062 9.557C5.55062 8.727 6.21706 8.057 7.04266 8.057C7.85831 8.057 8.53471 8.727 8.53471 9.557V9.547C8.53471 10.367 7.85831 11.047 7.04266 11.047L7.05261 11.058ZM12.0669 8.058H12.0569C12.8726 8.048 13.549 8.728 13.549 9.558C13.549 10.378 12.8726 11.058 12.0569 11.058C11.2313 11.058 10.5649 10.378 10.5649 9.558C10.5549 8.728 11.2313 8.048 12.047 8.048L12.0669 8.058ZM17.0403 11.058L17.0304 11.057C16.2048 11.047 15.5384 10.377 15.5384 9.557C15.5384 8.727 16.2048 8.057 17.0304 8.057C17.846 8.057 18.5224 8.727 18.5224 9.557V9.547C18.5224 10.367 17.846 11.047 17.0304 11.047L17.0403 11.058Z" fill="#DEE8ED"/>
</svg>
