<?xml version="1.0" ?><svg role="img" viewBox="0 0 24 22" xmlns="http://www.w3.org/2000/svg">
<path d="M23.9646 8.71411L23.6809 8.97817L18.5761 13.5993L19.7105 20.0689V20.465C19.7105 20.861 19.2851 21.2571 18.8597 21.2571C18.7179 21.2571 18.7179 21.2571 18.5761 21.2571L18.1507 21.1251L11.9114 18.0884L5.67208 21.1251L5.38848 21.2571C5.38848 21.2571 5.24668 21.2571 5.10487 21.2571C4.67947 21.2571 4.25406 20.861 4.25406 20.465V20.0689L5.38848 13.5993L0.283604 8.97817L0.141801 8.84614C-8.13511e-07 8.71411 0 8.45005 0 8.31801C0 7.92192 0.283604 7.52582 0.70901 7.52582H0.850812L7.94091 6.6016L11.0606 0.528129C11.0606 0.528129 11.0606 0.528128 11.0606 0.396096C11.2024 0.132032 11.486 0 11.9114 0C12.195 0 12.6204 0.132032 12.7622 0.396096C12.7622 0.396096 12.7622 0.396097 12.7622 0.528129L15.8818 6.6016L22.9719 7.52582H23.1137C23.5391 7.65785 23.8227 7.92192 23.8227 8.31801C24.1063 8.45005 23.9646 8.58208 23.9646 8.71411Z" fill="#AABACD"/>
</svg>
