<?xml version="1.0" ?><svg role="img" viewBox="0 0 37 37" fill="none" xmlns="http://www.w3.org/2000/svg">
<rect width="37" height="37" rx="18.5" fill="#AABACD"/>
<path d="M14.5432 10.7297L23.0224 15.067" stroke="white" stroke-linecap="round" stroke-linejoin="round"/>
<path d="M17.8322 9.04422L11.4702 12.292H11.4599C10.7302 12.662 10.278 13.4123 10.2883 14.2242V21.2851H10.278C10.2677 22.097 10.7199 22.8473 11.4497 23.2173L17.8013 26.4651C18.3872 26.7631 19.0963 26.7631 19.6924 26.4548L26.0441 23.1967H26.0338C26.7533 22.8164 27.2055 22.0662 27.2055 21.2542V14.1831H27.1952C27.1952 13.3609 26.743 12.6106 26.0236 12.2406L19.6616 8.98255C19.0655 8.67422 18.3563 8.67422 17.7602 8.97227L17.8322 9.04422Z" stroke="white" stroke-linecap="round" stroke-linejoin="round"/>
<path d="M26.9176 13.0681L18.7674 17.2204L10.6243 13.0579" stroke="white" stroke-linecap="round" stroke-linejoin="round"/>
<path d="M18.7778 17.2251V26.7218" stroke="white" stroke-linecap="round" stroke-linejoin="round"/>
<path d="M23.0225 15.0671V18.058" stroke="white" stroke-linecap="round" stroke-linejoin="round"/>
</svg>
