<?xml version="1.0" ?><svg role="img" viewBox="0 0 24 24" xmlns="http://www.w3.org/2000/svg">
<path d="M21.7816 3.03H19.0461H19.0362C18.8969 3.02 18.7875 2.91 18.7875 2.77V1.02C18.7875 0.46 18.3399 0.02 17.7928 0.02C17.2358 0.02 16.7981 0.46 16.7981 1.02V5.77C16.7981 6.18 16.4599 6.52 16.0521 6.52C15.6343 6.52 15.3061 6.18 15.3061 5.77V3.52C15.3061 3.24 15.0773 3.02 14.8088 3.02H8.59191H8.58196C8.44271 3.02 8.33329 2.9 8.33329 2.77V1.01V1C8.33329 0.44 7.88568 0 7.3386 0C6.78157 0 6.3439 0.44 6.3439 1V5.75C6.3439 6.16 6.00571 6.5 5.59788 6.5C5.18011 6.5 4.85186 6.16 4.85186 5.75V3.49C4.85186 3.21 4.62308 2.99 4.35451 2.99H4.35352H2.86148H2.85153C1.74742 2.99 0.862143 3.88 0.862143 4.99V21.99V21.98C0.852196 23.08 1.74742 23.98 2.84158 23.98H21.7408H21.7308C22.825 23.98 23.7202 23.08 23.7202 21.98V4.98L23.7192 4.979C23.7192 3.869 22.824 2.979 21.7298 2.979L21.7816 3.03ZM21.7816 21.53C21.7816 21.8 21.5528 22.03 21.2842 22.03H3.37971H3.36977C3.09125 22.02 2.87242 21.8 2.87242 21.52V9.52C2.86247 9.24 3.09125 9.01 3.35982 9.01H21.2643H21.2544C21.5229 9 21.7517 9.23 21.7517 9.5L21.7816 21.53Z" fill="#AABACD"/>
<path d="M9.99752 11.1811C9.47033 10.9211 8.86356 10.9911 8.41595 11.3511L6.73491 12.7011H6.72496C6.2873 13.0411 6.21767 13.6711 6.56581 14.1011C6.90401 14.5311 7.53067 14.6011 7.95839 14.2511L8.82377 13.5511V19.0011C8.82377 19.5511 9.26144 19.9911 9.81847 19.9911C10.3656 19.9811 10.8032 19.5411 10.8032 18.9811V12.4811C10.7933 11.9011 10.465 11.3811 9.95773 11.1311L9.99752 11.1811Z" fill="#AABACD"/>
<path d="M16.3107 11.0298H13.3267H13.3167C12.7597 11.0298 12.322 11.4698 12.322 12.0298C12.322 12.5798 12.7597 13.0298 13.3167 13.0198H15.515L12.9089 18.5898V18.5798C12.6702 19.0698 12.889 19.6698 13.3764 19.9098C13.8737 20.1298 14.4507 19.9198 14.6993 19.4198L17.6536 13.0858V13.0758C17.9719 12.3058 17.6237 11.4258 16.8678 11.0958C16.6788 11.0058 16.4699 10.9658 16.271 10.9658L16.3107 11.0298Z" fill="#AABACD"/>
</svg>
