<?xml version="1.0" ?><svg role="img" viewBox="0 0 30 30" fill="none" xmlns="http://www.w3.org/2000/svg">
<rect width="30" height="30" rx="15" fill="#FF6361"/>
<path d="M20.8349 19.9391L17.5064 16.609V16.6039C19.0868 14.5182 18.6841 11.5502 16.6041 9.96925C14.5164 8.38325 11.5493 8.78613 9.96894 10.8668C8.38345 12.9475 8.7862 15.9155 10.8662 17.4964C12.5588 18.7815 14.9039 18.7815 16.5964 17.4913L19.9249 20.8209C20.1747 21.0606 20.5724 21.0606 20.8222 20.8158H20.8171C21.0618 20.5659 21.0618 20.163 20.812 19.9131L20.8349 19.9391ZM10.3156 13.7583C10.3105 11.8561 11.8552 10.3109 13.7517 10.3109C15.6482 10.3058 17.1929 11.851 17.1929 13.7481C17.1929 15.6452 15.6482 17.1904 13.7517 17.1904L13.7466 17.1899C11.845 17.1848 10.3054 15.6447 10.3003 13.7476L10.3156 13.7583Z" fill="white"/>
</svg>
