<?xml version="1.0" ?><svg role="img" viewBox="0 0 24 24" xmlns="http://www.w3.org/2000/svg">
<path d="M23.6054 21.8783L16.9836 15.2181V15.2079C20.1277 11.0363 19.3264 5.10031 15.1885 1.93851C11.0353 -1.2335 5.13267 -0.427746 1.98864 3.7336C-1.16553 7.89494 -0.364306 13.831 3.77364 16.9928C7.14079 19.563 11.8061 19.563 15.1733 16.9826L21.795 23.6417C22.292 24.1211 23.083 24.1211 23.58 23.6315H23.5699C24.0567 23.1318 24.0567 22.326 23.5597 21.8262L23.6054 21.8783ZM2.6783 9.51664C2.66816 5.71227 5.74119 2.62186 9.51403 2.62186C13.2869 2.61167 16.3599 5.70207 16.3599 9.49624C16.3599 13.2904 13.2869 16.3808 9.51403 16.3808L9.50388 16.3798C5.72091 16.3696 2.65802 13.2894 2.64788 9.49522L2.6783 9.51664Z" fill="#AABACD"/>
</svg>
