<?xml version="1.0" ?><svg role="img" viewBox="0 0 23 23" xmlns="http://www.w3.org/2000/svg"><rect fill="#ff6361" height="23" rx="11.5" width="23"/><path d="m16.1334 7.52379c-.0623-.06231-.1537-.08309-.2326-.0457l-9.55471 4.10851h-.00415c-.10801.0416-.15371.1662-.10801.27.01662.0416.04985.0748.09139.0997l2.77087 1.4665-.00042-.0004c.03323.0166.07893.0166.11216-.0125l4.27467-3.448v-.00415c.0416-.03739.108-.03324.1454.01246.0291.03739.0291.09139-.0041.12879l-3.448 4.2747v-.0042c-.0291.0291-.0333.0748-.0125.1122l1.4664 2.7709-.0041-.0042c.0332.0665.1038.108.1828.108h.0041v-.0041c.079-.0042.1496-.054.1787-.1288l4.1542-9.51319v-.00415c.0332-.07893.0166-.17032-.0457-.23264z" fill="#fff"/></svg>