<?xml version="1.0" ?><svg role="img"  viewBox="0 0 15 15" xmlns="http://www.w3.org/2000/svg"><path d="m14.9778 5.84933-.1772.17726-3.1906 3.10192.7091 4.34269v.2659c0 .2659-.2659.5317-.5318.5317-.0886 0-.0886 0-.1773 0l-.2658-.0886-3.89959-2.0384-3.89956 2.0384-.17725.0886s-.08863 0-.17725 0c-.26588 0-.53176-.2658-.53176-.5317v-.2659l.70901-4.34269-3.190548-3.10192-.0886262-.08863c-.08862631-.08863-.0886258-.26588-.0886258-.3545 0-.26588.177253-.53176.443131-.53176h.088626l4.431313-.62039 1.94978-4.076804s0-.000001 0-.088627c.08863-.1772526.26588-.265879.53176-.265879.17725 0 .44313.0886264.53176.265879v.088627l1.94977 4.076804 4.43136.62039h.0886c.2659.08862.4431.26588.4431.53176.1773.08862.0886.17725.0886.26587z" fill="#ff6361"/></svg>