<?xml version="1.0" ?><svg role="img" viewBox="0 0 15 15" xmlns="http://www.w3.org/2000/svg"><path d="m14.6428 6.48503-1.2066-.97055-.0066-.00656c-.1967-.15739-.2951-.40002-.2623-.64266l.1639-1.54108h-.0065c.0787-.75414-.4656-1.43615-1.2132-1.51484-.1049-.01312-.2033-.01312-.3017-.00656l-1.541.16394v-.00655c-.2492.02623-.48532-.07214-.6427-.26231l-.97055-1.206633c-.51151-.596757-1.40992-.655777-2.00012-.144271-.05246.039347-.10493.091809-.14427.137713l-.97055 1.200071h-.00656c-.15739.19018-.40002.28854-.64266.25575l-1.54108-.1705c-.75414-.08525-1.43615.45905-1.51484 1.20663-.01312.09837-.01312.19673-.00656.2951l.16394 1.53452c.02624.24264-.07213.47872-.26886.6361l-1.206633.96399v-.00655c-.5967574.47216-.688566 1.33778-.216407 1.92798.05902.07214.131156.14427.209849.20985l1.200071.96399c.19018.15083.28854.39347.25575.6361l-.1705 1.5345v-.0065c-.08525.7476.45905 1.4296 1.20663 1.5083.09837.0065.19673.0065.2951 0l1.53845-.1705h-.00655c.24263-.0328.47871.0655.6361.2557l.97055 1.2066-.00656-.0065c.47216.5902 1.33779.682 1.92799.2098.07213-.0656.14427-.1377.20984-.2164l.964-1.2066h-.00656c.15083-.1967.39346-.2951.63609-.2689l1.5345.164-.0065-.0066c.7476.0787 1.4296-.4656 1.5083-1.2132.0065-.1049.0065-.2033 0-.3016l-.1705-1.5385-.0007-.0065c-.0328-.24924.0656-.48532.2623-.64271l1.2001-.97055v-.00656c.5902-.47872.682-1.34434.2098-1.93454-.0655-.07869-.1377-.15083-.2164-.21641zm-6.76763 3.07559v-.00656c-.40002.51154-1.13449.60334-1.646.20985-.03934-.03279-.07213-.05902-.11148-.09181l-1.60665-1.60009c-.26231-.25575-.26887-.66889-.01968-.93121.2492-.26231.66234-.26886.92465-.01967 0 0 .00656.00656.01312.01312l1.47549 1.4755 2.55753-3.41726v-.00656c.21641-.2951.62295-.35412.91805-.13115.2886.2164.3476.62299.1246.91809z" fill="#0075ff"/></svg>