<?xml version="1.0" ?><svg role="img" viewBox="0 0 25 24" xmlns="http://www.w3.org/2000/svg">
<path d="M24.0888 11.81L13.1491 0.31L13.1392 0.3C12.7314 -0.1 12.0948 -0.1 11.6969 0.3L0.755251 11.8H0.745304C0.357373 12.19 0.377267 12.83 0.765198 13.21C0.944243 13.38 1.19292 13.48 1.45154 13.48H2.94358H2.93363C3.2022 13.47 3.43098 13.7 3.43098 13.97V22.47C3.43098 23.29 4.09743 23.96 4.92302 23.96H19.8434H19.8335C20.6491 23.96 21.3255 23.28 21.3255 22.46V13.96C21.3156 13.68 21.5444 13.45 21.8129 13.45H23.295L23.2851 13.449C23.8322 13.449 24.2798 12.999 24.2798 12.449C24.2798 12.189 24.1803 11.939 24.0013 11.749L24.0888 11.81ZM18.1753 12.76L15.8378 14.853V14.852C15.6687 14.992 15.619 15.222 15.7085 15.422L16.9917 18.392C17.121 18.692 17.0513 19.052 16.7927 19.272V19.262C16.5341 19.492 16.1661 19.532 15.8676 19.362L12.6448 17.532C12.4857 17.442 12.3066 17.442 12.1574 17.522L8.93463 19.342V19.332C8.63622 19.492 8.26818 19.452 8.00956 19.232C7.75094 19.012 7.67136 18.652 7.81062 18.342L9.09378 15.352H9.08383C9.16341 15.152 9.11367 14.922 8.95452 14.772L6.64185 12.71C6.40313 12.49 6.31361 12.15 6.43297 11.86H6.42302C6.53244 11.57 6.81095 11.39 7.11931 11.41H9.77514L9.7652 11.409C9.95419 11.409 10.1332 11.289 10.2128 11.109L11.6054 7.869H11.5954C11.8043 7.469 12.3017 7.319 12.6995 7.539C12.8189 7.609 12.9283 7.709 13.0079 7.839L14.4005 11.099L14.3905 11.089C14.4602 11.269 14.6392 11.389 14.8381 11.389H17.484V11.379C17.7824 11.359 18.061 11.539 18.1803 11.829C18.2897 12.109 18.2201 12.429 18.0112 12.639L18.1753 12.76Z" fill="#DEE8ED"/>
</svg>
