<?xml version="1.0" ?><svg role="img" viewBox="0 0 36 36" fill="none" xmlns="http://www.w3.org/2000/svg">
<path d="M35.1832 17.3562L19.1061 0.455582L19.0914 0.440886C18.4921 -0.146962 17.5565 -0.146962 16.9718 0.440886L0.891732 17.3415H0.877113C0.307002 17.9147 0.336239 18.8552 0.90635 19.4137C1.16948 19.6635 1.53493 19.8105 1.91501 19.8105H4.10774H4.09313C4.48782 19.7958 4.82404 20.1338 4.82404 20.5306V33.0224C4.82404 34.2275 5.80346 35.2121 7.01677 35.2121H28.9441H28.9295C30.1282 35.2121 31.1222 34.2128 31.1222 33.0077V20.5159C31.1076 20.1044 31.4438 19.7664 31.8385 19.7664H34.0167L34.002 19.7649C34.806 19.7649 35.4639 19.1036 35.4639 18.2953C35.4639 17.9132 35.3177 17.5458 35.0546 17.2666L35.1832 17.3562ZM26.4927 18.7524L23.0574 21.8283V21.8268C22.8089 22.0325 22.7358 22.3706 22.8673 22.6645L24.7531 27.0293C24.9431 27.4701 24.8408 27.9992 24.4607 28.3225V28.3078C24.0806 28.6458 23.5398 28.7046 23.1012 28.4548L18.3649 25.7654C18.131 25.6331 17.8679 25.6331 17.6486 25.7507L12.9123 28.4254V28.4107C12.4738 28.6458 11.9329 28.5871 11.5528 28.2637C11.1727 27.9404 11.0558 27.4114 11.2604 26.9558L13.1462 22.5616H13.1316C13.2485 22.2677 13.1754 21.9297 12.9415 21.7092L9.5428 18.6789C9.19197 18.3556 9.0604 17.8559 9.23582 17.4297H9.2212C9.382 17.0035 9.79132 16.739 10.2445 16.7684H14.1475L14.1329 16.7669C14.4107 16.7669 14.6738 16.5905 14.7908 16.326L16.8373 11.5644H16.8227C17.1297 10.9766 17.8606 10.7562 18.4453 11.0795C18.6207 11.1823 18.7815 11.3293 18.8985 11.5204L20.945 16.3113L20.9304 16.2966C21.0327 16.5612 21.2959 16.7375 21.5882 16.7375H25.4767V16.7228C25.9152 16.6934 26.3245 16.958 26.5 17.3841C26.6608 17.7956 26.5584 18.2659 26.2515 18.5745L26.4927 18.7524Z" fill="#AABACD"/>
</svg>
